<svg width="255" height="151" viewBox="0 0 255 151" fill="none" xmlns="http://www.w3.org/2000/svg">
<path d="M-2.19289e-05 4.65561e-05H26.549V149.338H-2.19289e-05V4.65561e-05ZM55.582 45.6311H82.131V149.338H55.582V45.6311ZM69.0639 32.3566C64.086 32.3566 60.0069 30.8356 56.8265 27.7935C53.6462 24.6132 52.056 20.7414 52.056 16.1783C52.056 11.6152 53.6462 7.81264 56.8265 4.77057C60.0069 1.59022 64.086 4.65561e-05 69.0639 4.65561e-05C73.7653 4.65561e-05 77.7062 1.59022 80.8865 4.77057C84.2051 7.81264 85.8644 11.6152 85.8644 16.1783C85.8644 20.7414 84.2051 24.6132 80.8865 27.7935C77.7062 30.8356 73.7653 32.3566 69.0639 32.3566ZM111.201 4.65561e-05H137.75V149.338H111.201V4.65561e-05ZM254.312 149.338H230.045L228.178 138.552C224.859 142.424 220.78 145.466 215.94 147.679C211.239 149.753 206.192 150.79 200.799 150.79C192.779 150.79 185.865 149.061 180.058 145.605C174.25 142.148 169.756 137.17 166.576 130.671C163.396 124.034 161.805 115.875 161.805 106.196V45.6311H188.562V102.877C188.562 110.759 190.083 116.774 193.125 120.922C196.305 124.932 201.145 126.937 207.644 126.937C214.005 126.937 218.913 124.863 222.37 120.715C225.965 116.567 227.763 110.552 227.763 102.67V45.6311H254.312V149.338Z" fill="#EA4646"/>
</svg>
